# xmcd
#
# Track frame offsets:
#	150
#	10298
#	24361
#	37347
#	48072
#	62392
#	76175
#	86579
#	97124
#	108165
#
# Disc length: 1607 seconds
#
# Revision: 0
# Processed by: cddbd v1.5.1PL0 Copyright (c) Steve Scherf et al.
# Submitted via: dBpowerAMP V4.0
#
DISCID=6d06450a
DTITLE=George Jones - George Jones (Direct Source) [Disc 2]
DYEAR=2005
DGENRE=Country
TTITLE0=Walk Through This World With Me
TTITLE1=A Good Year For The Roses
TTITLE2=When The Grass Grows Over Me
TTITLE3=Who Shot Sam
TTITLE4=Open Pit Mine
TTITLE5=She's Mine
TTITLE6=King Of The Road
TTITLE7=Treasure Of Love
TTITLE8=Where We'll Never Grow Old
TTITLE9=Wreck On The Highway (With Gene Pitney)
EXTD=
EXTT0=
EXTT1=
EXTT2=
EXTT3=
EXTT4=
EXTT5=
EXTT6=
EXTT7=
EXTT8=
EXTT9=
PLAYORDER=
